<svg width="16" height="17" viewBox="0 0 16 17" fill="none" xmlns="http://www.w3.org/2000/svg">
<g clip-path="url(#clip0_0_9)">
<path fill-rule="evenodd" clip-rule="evenodd" d="M4.6087 6.3088C5.57343 6.53913 6.74147 6.6739 8 6.6739C9.25853 6.6739 10.4266 6.53913 11.3913 6.3088C12.3048 6.09073 13.3322 5.5777 13.7854 5.2216L8.28287 14.0464C8.15237 14.2557 7.84763 14.2557 7.71713 14.0464L2.21458 5.2216C2.66777 5.5777 3.6952 6.09073 4.6087 6.3088Z" fill="#121717"/>
<path fill-rule="evenodd" clip-rule="evenodd" d="M13.3327 4.57867C13.3315 4.58457 13.3292 4.59483 13.3249 4.6098C13.3145 4.64663 13.2983 4.69137 13.2782 4.73917C13.2723 4.75323 13.2663 4.7669 13.2604 4.77993C12.8368 5.07043 11.9929 5.47977 11.2365 5.66037C10.3292 5.877 9.21377 6.00723 8 6.00723C6.78623 6.00723 5.67083 5.877 4.7635 5.66037C4.0004 5.4782 3.14835 5.06323 2.72846 4.77227C2.72461 4.76417 2.72072 4.75567 2.71684 4.74693C2.69973 4.7083 2.68574 4.67047 2.67659 4.637C2.66785 4.60507 2.6668 4.5889 2.66668 4.58707C2.66667 4.5869 2.66668 4.587 2.66668 4.58707C2.66668 4.57863 2.67013 4.47443 2.89495 4.28953C3.11515 4.10847 3.47407 3.91563 3.97637 3.74092C4.97473 3.39366 6.3973 3.16667 8 3.16667C9.6027 3.16667 11.0253 3.39366 12.0236 3.74092C12.5259 3.91563 12.8848 4.10847 13.105 4.28953C13.3002 4.45003 13.3286 4.54963 13.3327 4.57867ZM1.65059 5.57707L7.15143 14.3991C7.54293 15.027 8.45707 15.027 8.84857 14.3991L14.3511 5.57433C14.357 5.56493 14.3626 5.5554 14.368 5.5457L13.7854 5.2216C14.368 5.5457 14.3679 5.5458 14.368 5.5457L14.3684 5.545L14.3688 5.54417L14.37 5.54203L14.3733 5.53607C14.3759 5.53133 14.3792 5.52513 14.3832 5.51757C14.3913 5.5025 14.4021 5.48183 14.4147 5.4567C14.4397 5.40693 14.4732 5.337 14.5072 5.2561C14.5634 5.12263 14.6667 4.8563 14.6667 4.58697C14.6667 4.0191 14.3343 3.57418 13.9519 3.2597C13.5649 2.94142 13.0451 2.68454 12.4617 2.48159C11.2885 2.07352 9.711 1.83333 8 1.83333C6.289 1.83333 4.71153 2.07352 3.53833 2.48159C2.95488 2.68454 2.4351 2.94143 2.04806 3.2597C1.66565 3.57418 1.33333 4.0191 1.33333 4.58697C1.33333 4.87583 1.43088 5.13593 1.49774 5.2869C1.53458 5.37007 1.57116 5.43987 1.59896 5.48963C1.61299 5.5148 1.62516 5.5355 1.6345 5.55097C1.63918 5.55873 1.64318 5.56523 1.64639 5.57037L1.64887 5.57433L1.65059 5.57707ZM11.9956 6.832L8 13.24L4.00437 6.832C4.15537 6.8797 4.30597 6.92193 4.4539 6.95727C5.47603 7.2013 6.6967 7.34057 8 7.34057C9.3033 7.34057 10.524 7.2013 11.5461 6.95727C11.694 6.92193 11.8446 6.8797 11.9956 6.832Z" fill="#121717"/>
</g>
<defs>
<clipPath id="clip0_0_9">
<rect width="16" height="16" fill="white" transform="translate(0 0.5)"/>
</clipPath>
</defs>
</svg>
